<?xml version="1.0" standalone="no"?><!DOCTYPE svg PUBLIC "-//W3C//DTD SVG 1.1//EN" "http://www.w3.org/Graphics/SVG/1.1/DTD/svg11.dtd"><svg t="1639644093026" class="icon" viewBox="0 0 1024 1024" version="1.1" xmlns="http://www.w3.org/2000/svg" p-id="1061" xmlns:xlink="http://www.w3.org/1999/xlink" width="24" height="24"><defs><style type="text/css"></style></defs><path d="M512 1024a512 512 0 1 1 512-512 512 512 0 0 1-512 512z m0-947.2a435.2 435.2 0 1 0 435.2 435.2A435.2 435.2 0 0 0 512 76.8z" fill="#333333" p-id="1062"></path><path d="M719.104 550.4H304.896a38.4 38.4 0 0 1 0-76.8h414.208a38.4 38.4 0 1 1 0 76.8z" fill="#333333" p-id="1063"></path><path d="M512 757.504a38.4 38.4 0 0 1-38.4-38.4V304.896a38.4 38.4 0 0 1 76.8 0v414.208a38.4 38.4 0 0 1-38.4 38.4z" fill="#333333" p-id="1064"></path></svg>